<mxfile host="app.diagrams.net" modified="2024-04-23T17:44:25.885Z" agent="Mozilla/5.0 (Windows NT 10.0; Win64; x64) AppleWebKit/537.36 (KHTML, like Gecko) Chrome/124.0.0.0 Safari/537.36" version="24.2.5" etag="UV6y01c7-2GYPgDaQrqV" type="github">
  <diagram name="PÃ¡gina-1" id="BRy_wPLA_WQM9LMyWTcs">
    <mxGraphModel>
      <root>
        <mxCell id="0" />
        <mxCell id="1" parent="0" />
      </root>
    </mxGraphModel>
  </diagram>
</mxfile>
